<mxfile host="app.diagrams.net" modified="2023-04-14T17:33:24.609Z" agent="Mozilla/5.0 (Windows NT 10.0; Win64; x64) AppleWebKit/537.36 (KHTML, like Gecko) Chrome/112.0.0.0 Safari/537.36" etag="iOUkxMLyN4xn7sW75NeE" version="21.1.8" type="device">
  <diagram name="PÃ¡gina-1" id="MTlRpJxLdzezo5BpEJkl">
    <mxGraphModel dx="880" dy="484" grid="1" gridSize="10" guides="1" tooltips="1" connect="1" arrows="1" fold="1" page="1" pageScale="1" pageWidth="827" pageHeight="1169" math="0" shadow="0">
      <root>
        <mxCell id="0" />
        <mxCell id="1" parent="0" />
        <mxCell id="c12B5aycz9Z4I4O7dcQN-3" value="Cinema" style="swimlane;childLayout=stackLayout;horizontal=1;startSize=50;horizontalStack=0;rounded=1;fontSize=14;fontStyle=0;strokeWidth=2;resizeParent=0;resizeLast=1;shadow=0;dashed=0;align=center;arcSize=4;whiteSpace=wrap;html=1;" vertex="1" parent="1">
          <mxGeometry x="200" y="100" width="110" height="130" as="geometry" />
        </mxCell>
        <mxCell id="c12B5aycz9Z4I4O7dcQN-4" value="CNPJ PK&lt;br&gt;Nome&lt;br&gt;Endereco&lt;br&gt;Telefone" style="align=left;strokeColor=none;fillColor=none;spacingLeft=4;fontSize=12;verticalAlign=top;resizable=0;rotatable=0;part=1;html=1;" vertex="1" parent="c12B5aycz9Z4I4O7dcQN-3">
          <mxGeometry y="50" width="110" height="80" as="geometry" />
        </mxCell>
        <mxCell id="c12B5aycz9Z4I4O7dcQN-5" value="Cliente" style="swimlane;childLayout=stackLayout;horizontal=1;startSize=50;horizontalStack=0;rounded=1;fontSize=14;fontStyle=0;strokeWidth=2;resizeParent=0;resizeLast=1;shadow=0;dashed=0;align=center;arcSize=4;whiteSpace=wrap;html=1;" vertex="1" parent="1">
          <mxGeometry x="470" y="100" width="110" height="130" as="geometry" />
        </mxCell>
        <mxCell id="c12B5aycz9Z4I4O7dcQN-6" value="CPF PK&lt;br&gt;Nome&lt;br&gt;Endereco&lt;br&gt;Telefone" style="align=left;strokeColor=none;fillColor=none;spacingLeft=4;fontSize=12;verticalAlign=top;resizable=0;rotatable=0;part=1;html=1;" vertex="1" parent="c12B5aycz9Z4I4O7dcQN-5">
          <mxGeometry y="50" width="110" height="80" as="geometry" />
        </mxCell>
        <mxCell id="c12B5aycz9Z4I4O7dcQN-7" value="Ingresso" style="swimlane;childLayout=stackLayout;horizontal=1;startSize=50;horizontalStack=0;rounded=1;fontSize=14;fontStyle=0;strokeWidth=2;resizeParent=0;resizeLast=1;shadow=0;dashed=0;align=center;arcSize=4;whiteSpace=wrap;html=1;" vertex="1" parent="1">
          <mxGeometry x="470" y="360" width="110" height="130" as="geometry" />
        </mxCell>
        <mxCell id="c12B5aycz9Z4I4O7dcQN-8" value="Numero PK&lt;br&gt;Poltrona&lt;br&gt;Valor&lt;br&gt;Tipo&lt;br&gt;CPFCliente PF" style="align=left;strokeColor=none;fillColor=none;spacingLeft=4;fontSize=12;verticalAlign=top;resizable=0;rotatable=0;part=1;html=1;" vertex="1" parent="c12B5aycz9Z4I4O7dcQN-7">
          <mxGeometry y="50" width="110" height="80" as="geometry" />
        </mxCell>
        <mxCell id="c12B5aycz9Z4I4O7dcQN-9" value="Sessoes" style="swimlane;childLayout=stackLayout;horizontal=1;startSize=50;horizontalStack=0;rounded=1;fontSize=14;fontStyle=0;strokeWidth=2;resizeParent=0;resizeLast=1;shadow=0;dashed=0;align=center;arcSize=4;whiteSpace=wrap;html=1;" vertex="1" parent="1">
          <mxGeometry x="195" y="360" width="120" height="150" as="geometry" />
        </mxCell>
        <mxCell id="c12B5aycz9Z4I4O7dcQN-10" value="Codigo PK&lt;br&gt;Descricao&lt;br&gt;Horario&lt;br&gt;Capacidade&lt;br&gt;CNPJCinema PF&lt;br&gt;NumeroIngresso PF" style="align=left;strokeColor=none;fillColor=none;spacingLeft=4;fontSize=12;verticalAlign=top;resizable=0;rotatable=0;part=1;html=1;" vertex="1" parent="c12B5aycz9Z4I4O7dcQN-9">
          <mxGeometry y="50" width="120" height="100" as="geometry" />
        </mxCell>
        <mxCell id="c12B5aycz9Z4I4O7dcQN-16" value="" style="endArrow=none;html=1;rounded=0;exitX=0.5;exitY=0;exitDx=0;exitDy=0;" edge="1" parent="1" source="c12B5aycz9Z4I4O7dcQN-9" target="c12B5aycz9Z4I4O7dcQN-4">
          <mxGeometry relative="1" as="geometry">
            <mxPoint x="140" y="290" as="sourcePoint" />
            <mxPoint x="300" y="290" as="targetPoint" />
          </mxGeometry>
        </mxCell>
        <mxCell id="c12B5aycz9Z4I4O7dcQN-17" value="1" style="resizable=0;html=1;whiteSpace=wrap;align=right;verticalAlign=bottom;" connectable="0" vertex="1" parent="c12B5aycz9Z4I4O7dcQN-16">
          <mxGeometry x="1" relative="1" as="geometry">
            <mxPoint x="15" y="19" as="offset" />
          </mxGeometry>
        </mxCell>
        <mxCell id="c12B5aycz9Z4I4O7dcQN-18" value="" style="endArrow=none;html=1;rounded=0;exitX=0.5;exitY=0;exitDx=0;exitDy=0;" edge="1" parent="1">
          <mxGeometry relative="1" as="geometry">
            <mxPoint x="524.5" y="360" as="sourcePoint" />
            <mxPoint x="524.5" y="230" as="targetPoint" />
          </mxGeometry>
        </mxCell>
        <mxCell id="c12B5aycz9Z4I4O7dcQN-19" value="1" style="resizable=0;html=1;whiteSpace=wrap;align=right;verticalAlign=bottom;" connectable="0" vertex="1" parent="c12B5aycz9Z4I4O7dcQN-18">
          <mxGeometry x="1" relative="1" as="geometry">
            <mxPoint x="-4" y="20" as="offset" />
          </mxGeometry>
        </mxCell>
        <mxCell id="c12B5aycz9Z4I4O7dcQN-20" value="N" style="resizable=0;html=1;whiteSpace=wrap;align=right;verticalAlign=bottom;" connectable="0" vertex="1" parent="1">
          <mxGeometry x="280" y="260" as="geometry">
            <mxPoint x="-11" y="98" as="offset" />
          </mxGeometry>
        </mxCell>
        <mxCell id="c12B5aycz9Z4I4O7dcQN-21" value="N" style="resizable=0;html=1;whiteSpace=wrap;align=right;verticalAlign=bottom;" connectable="0" vertex="1" parent="1">
          <mxGeometry x="520" y="358" as="geometry" />
        </mxCell>
        <mxCell id="c12B5aycz9Z4I4O7dcQN-22" value="" style="endArrow=none;html=1;rounded=0;exitX=0.995;exitY=0.146;exitDx=0;exitDy=0;exitPerimeter=0;" edge="1" parent="1" source="c12B5aycz9Z4I4O7dcQN-10">
          <mxGeometry relative="1" as="geometry">
            <mxPoint x="320" y="425" as="sourcePoint" />
            <mxPoint x="470" y="424.5" as="targetPoint" />
          </mxGeometry>
        </mxCell>
        <mxCell id="c12B5aycz9Z4I4O7dcQN-23" value="1" style="resizable=0;html=1;whiteSpace=wrap;align=right;verticalAlign=bottom;" connectable="0" vertex="1" parent="c12B5aycz9Z4I4O7dcQN-22">
          <mxGeometry x="1" relative="1" as="geometry">
            <mxPoint x="-145" as="offset" />
          </mxGeometry>
        </mxCell>
        <mxCell id="c12B5aycz9Z4I4O7dcQN-24" value="N" style="resizable=0;html=1;whiteSpace=wrap;align=right;verticalAlign=bottom;" connectable="0" vertex="1" parent="1">
          <mxGeometry x="466" y="423" as="geometry" />
        </mxCell>
      </root>
    </mxGraphModel>
  </diagram>
</mxfile>
